<svg t="1641541223647" class="icon" viewBox="0 0 1024 1024" version="1.1" xmlns="http://www.w3.org/2000/svg" p-id="13832"><path d="M911.232 420.565333l0 109.717333q0 22.848-16 38.848t-38.848 16l-237.717333 0 0 237.717333q0 22.848-16 38.848t-38.848 16l-109.717333 0q-22.848 0-38.848-16t-16-38.848l0-237.717333-237.717333 0q-22.848 0-38.848-16t-16-38.848l0-109.717333q0-22.848 16-38.848t38.848-16l237.717333 0 0-237.717333q0-22.848 16-38.848t38.848-16l109.717333 0q22.848 0 38.848 16t16 38.848l0 237.717333 237.717333 0q22.848 0 38.848 16t16 38.848z" p-id="13833" fill="#666666"></path></svg>
