<svg t="1641376211309" class="icon" viewBox="0 0 1204 1024" version="1.1" xmlns="http://www.w3.org/2000/svg" p-id="1702"><path d="M1230.3 393.709l2.067 1.637q-1.019-0.861-2.067-1.637zM-30.103 396.063l3.733-2.957c-4.482 3.118-8.138 7.103-10.793 11.736z" p-id="1703" fill="#666666"></path><path d="M101.197 1017.183c-0.33 2.211-0.675 4.408-0.976 6.633 0.622-2.36 0.988-5.072 1.009-7.867zM68.103 1048.77zM35.051 1013.178q0.359-2.484 0.746-4.967c-0.504 2.103-0.806 4.526-0.833 7.013z" p-id="1704" fill="#666666"></path><path d="M1168.102 1005.467c0.415 2.599 0.789 5.211 1.163 7.824-0.104-3.138-0.611-6.117-1.474-8.941zM1101.672 1022.539c-0.286-2.053-0.588-4.092-0.905-6.131 0.161 2.806 0.635 5.436 1.386 7.944z" p-id="1705" fill="#666666"></path><path d="M1186.596 705.582l-558.507-554.357c-5.81-5.714-13.785-9.24-22.584-9.24s-16.774 3.527-22.588 9.245l-566.629 554.353c-5.514 5.733-8.911 13.537-8.911 22.134 0 17.643 14.302 31.945 31.945 31.945 8.597 0 16.401-3.396 22.145-8.92l546.135-533.774 533.827 533.798c5.81 5.714 13.785 9.24 22.584 9.24s16.774-3.527 22.588-9.245c12.313-12.313 12.313-28.753-0.004-45.179z" p-id="1706" fill="#666666"></path></svg>
