<svg t="1644919262071" viewBox="0 0 1024 1024" version="1.1" xmlns="http://www.w3.org/2000/svg" p-id="3008" ><path d="M716.842667 970.24L759.04 1024c66.602667-28.842667 124.842667-69.12 172.842667-121.642667l-40.362667-56.234666a439.978667 439.978667 0 0 1-174.08 124.117333h-0.597333zM512 947.157333c-246.4 0-446.08-197.077333-446.08-441.6C65.92 262.4 265.6 65.28 512 65.28s446.122667 198.4 446.122667 441.6c0 108.8-40.362667 208.682667-106.965334 285.44l40.32 53.802667C972.842667 756.437333 1024 637.397333 1024 506.88 1024 225.92 794.88 0 512 0S0 226.602667 0 505.6c0 280.32 229.12 506.88 512 506.88 72.96 0 142.08-14.762667 204.842667-42.24l-41.002667-53.76c-51.2 19.2-106.24 30.677333-163.84 30.677333z m256-407.594666c-96-79.36-227.84-89.642667-332.842667-151.722667-32-20.437333-6.314667-59.52 25.685334-60.8 115.157333-19.2 229.077333 26.88 336.597333 64l6.442667-113.28c-134.442667-48.64-280.32-80-422.442667-57.6-51.2 12.8-102.4 28.8-138.837333 66.56-49.962667 51.2-41.002667 143.36 16.597333 184.32 95.402667 74.88 220.842667 85.802667 325.162667 143.36 40.96 16.64 23.68 71.68-16.682667 75.52-124.8 23.68-247.68-30.762667-355.2-89.6-1.28 43.52-2.56 85.76-2.56 128 136.32 60.117333 288 88.277333 435.2 65.237333 49.92-9.6 101.12-25.6 137.6-62.037333 52.437333-51.2 47.402667-149.802667-14.08-192H768z" p-id="3009" fill="currentColor"></path></svg>
